<?xml version="1.0" standalone="no"?>
<!DOCTYPE svg PUBLIC "-//W3C//DTD SVG 1.1//EN" "http://www.w3.org/Graphics/SVG/1.1/DTD/svg11.dtd" >
<svg xmlns="http://www.w3.org/2000/svg">
<metadata></metadata>
<defs>
<font id="negativespacemedium" horiz-adv-x="917" >
<font-face units-per-em="2048" ascent="1546" descent="-502" />
<missing-glyph horiz-adv-x="772" />
<glyph horiz-adv-x="0" />
<glyph unicode="&#xd;" horiz-adv-x="682" />
<glyph unicode=" "  horiz-adv-x="772" />
<glyph unicode="&#x09;" horiz-adv-x="772" />
<glyph unicode="&#xa0;" horiz-adv-x="772" />
<glyph unicode="!" horiz-adv-x="598" d="M102 77q12 37 53 35q-6 -54 50 -56q0 -27 -19.5 -38.5t-40.5 -8.5t-35.5 21t-7.5 47zM102 317v811v8h53v-771h50v-48h-103z" />
<glyph unicode="&#x22;" horiz-adv-x="575" d="M102 1082q55 13 74 48q14 -2 29 0q-33 -54 -103 -48zM116 1167q-8 29 8.5 49t45.5 22q-2 -60 52 -59q-14 -35 -51.5 -42t-54.5 30zM259 1082q62 17 79 48q14 0 25 2q-27 -56 -104 -50zM272 1204q11 36 55 34q-2 -62 52 -59q-8 -27 -38 -37t-53 6.5t-16 55.5z" />
<glyph unicode="#" horiz-adv-x="813" d="M102 624v104h49v-54l106 2v-106h54v-50h-102v104h-107zM102 825v112h49v-56h106v-100h-48v46zM209 987v47h48v-47h-48zM359 624v52h103v-108h54v-52h-103v108h-54zM359 829v52h103v-100h-49v48h-54zM413 987v47h49v-47h-49zM564 624v52h54v-52h-54zM564 829v52h54v-52 h-54z" />
<glyph unicode="$" horiz-adv-x="850" d="M102 377h53q35 -214 249 -271v-50h54v-46h-104v5v6v6v6v4v6v15q-120 39 -185 113.5t-67 205.5zM203 804q8 93 91 141q-37 -50 -41 -93q-8 -172 151 -230v-406q-10 4 -50 24v332q-77 35 -117 87t-34 145zM354 999v35h50v-20q-29 0 -50 -15zM359 821q2 44 39 81v-160 q-23 15 -33 44q-6 15 -6 35zM510 541v68l2 -2q155 -52 143 -228q-12 -89 -91 -136q41 41 39 129t-43 126q-21 23 -50 43zM510 775v133q46 -21 54 -87h50q4 -29 4 -46h-108zM512 75v31q71 18 108 47q-12 -25 -45.5 -47.5t-62.5 -30.5z" />
<glyph unicode="%" horiz-adv-x="981" d="M102 442q-10 110 74 159q-50 -89 2 -169t152 -69q30 4 51 16q-29 -54 -95 -63t-123 28t-61 98zM182 10l427 614h21l-2 -4l-2 -2l-2 -2l-2 -4l-386 -554h106l-29 -48h-131zM259 522q0 25 21 36.5t45.5 4.5t30.5 -28q10 -25 -5 -45t-44 -22q-2 41 -48 54zM510 141 q-15 84 70 157q-21 -43 -17.5 -88.5t23 -82t61 -57t95.5 -12.5q23 4 46 17q-17 -35 -58.5 -55t-97.5 -10q-106 31 -122 131zM667 213q-2 31 31.5 43.5t55.5 -11.5q23 -25 9.5 -56t-48.5 -27q-6 48 -48 51z" />
<glyph unicode="&#x26;" horiz-adv-x="1172" d="M102 263q-8 58 0 104q15 70 52 127t91 117.5t80 97.5q-4 6 -26.5 34t-30 39.5t-17 37.5t-11.5 55q2 100 81 141q-73 -102 58 -261q-25 -37 -79.5 -98.5t-91 -117.5t-52.5 -122q-10 -46 0 -106q23 -106 88 -173t166 -82q137 -14 216 39q-97 -106 -267 -85 q-100 14 -165.5 80t-91.5 173zM402 611l42 56q216 -263 223 -302q11 -108 -97 -176q52 68 42 128q-4 17 -33.5 60.5t-98 130.5t-78.5 103zM402 929q0 25 18.5 39.5t47.5 5.5q31 -19 20 -60t-44 -66q4 81 -42 81zM715 178q25 32 37 65l146 -193l45 -2l31 -44h-126zM771 402 q12 46 66 40q23 -4 31 -34h42q10 -19 12 -45h-103q-6 37 -48 39z" />
<glyph unicode="'" horiz-adv-x="419" d="M102 1082q48 17 66 46q25 0 31 2q8 2 12 4q-4 -8 -6 -10q-32 -50 -103 -42zM116 1167q-10 33 7.5 51t50.5 20q-4 -54 46 -59q-6 -37 -47.5 -43t-56.5 31z" />
<glyph unicode="(" horiz-adv-x="658" d="M102 417q-21 220 35 374t174 283q-89 -124 -130.5 -264t-25.5 -335q25 -195 116.5 -335t240.5 -250v-85q-348 209 -410 612zM441 1057q33 43 71 67v-11q-34 -23 -71 -56z" />
<glyph unicode=")" horiz-adv-x="604" d="M52 -68q31 21 50 39v-114q55 27 111 73q-58 -66 -161 -125v127zM52 1111v127q29 -15 50 -34v-43q126 -89 209 -219.5t97 -282.5q21 -363 -211 -595q85 112 127.5 240.5t31.5 300.5q-14 153 -96 284t-208 222z" />
<glyph unicode="*" horiz-adv-x="697" d="M102 340l35 102l31 -11l-12 -37l120 -46l-85 -110l76 -58l-39 -60l-89 64l83 110zM251 471v51h54v-72zM311 214l43 60l75 -102l29 19l4 -4l-87 -67zM435 348l52 17l13 -25l-44 -15z" />
<glyph unicode="+" horiz-adv-x="714" d="M102 315v104h49v-52h150v-154h60v-53h-108v155h-151zM253 471v101h48v-101h-48zM410 315v50h106v-50h-106z" />
<glyph unicode="," horiz-adv-x="419" d="M102 -46q60 21 72 46q19 -2 33 4q-33 -54 -105 -50zM120 77q12 39 56 35q-4 -23 8.5 -40.5t37.5 -19.5q-4 -21 -23 -32.5t-39.5 -9.5t-34 19t-5.5 48z" />
<glyph unicode="-" horiz-adv-x="714" d="M102 315v104h49v-54h365v-50h-414z" />
<glyph unicode="." horiz-adv-x="604" d="M102 77q14 39 58 35q-2 -27 12.5 -42.5t36.5 -17.5q-4 -23 -23.5 -34.5t-39.5 -8.5t-34.5 21t-9.5 47z" />
<glyph unicode="/" horiz-adv-x="1039" d="M100 -195l719 1433h20v-1l-688 -1386h89l-24 -46h-116z" />
<glyph unicode="0" horiz-adv-x="859" d="M102 160q-25 178 0 311q27 131 126 199q-62 -73 -72 -150q-19 -172 0 -311q23 -108 82.5 -171t171.5 -84q143 -10 216 38q-95 -104 -267 -85q-95 17 -148 66q-85 70 -109 187zM313 601q64 75 185 66q133 -15 169 -169q15 -145 0 -270q-17 -97 -97 -141q31 39 42 93 q21 149 0 270q-15 79 -50.5 120.5t-115.5 51.5q-83 4 -133 -21z" />
<glyph unicode="1" horiz-adv-x="494" d="M102 618l74 114h23l-44 -71h90v-711h54v-43h-106v711h-91z" />
<glyph unicode="2" d="M97 -93h2v2h1l472 379q37 33 42 96q10 102 -36.5 162.5t-127.5 75.5q-58 10 -91 -2q-2 -2 -7.5 -5t-9.5 -3q15 19 42 31q17 10 45 20q10 2 21 4q33 4 68 0q52 -6 93.5 -46.5t61 -92t12.5 -107.5t-45 -91l-466 -376h547v-47h-624zM106 437q2 95 44.5 153.5t119.5 106.5 q-17 -15 -30 -36q-66 -95 -64 -180h42q-6 -25 -7 -44h-105z" />
<glyph unicode="3" horiz-adv-x="865" d="M97 220h59q23 -143 118 -211.5t261 -51.5q53 10 99 45q-102 -124 -298 -93q-89 21 -150.5 85t-83.5 166zM203 624v104h54v-52l325 -2l-2 -4l-4 -3l-118 -201h37q75 -12 117.5 -58.5t54.5 -115.5q8 -60 -19.5 -115t-75.5 -84q35 43 39.5 98.5t-14.5 103t-59.5 82.5 t-93.5 40h-40l125 207h-326z" />
<glyph unicode="4" d="M100 110v2l397 613l1 1h20v-1l-363 -567h415v-204h50v-47h-102v203h-418zM518 261v263l52 85v-348h-52zM672 112v46h51v-46h-51z" />
<glyph unicode="5" horiz-adv-x="859" d="M104 224h52q25 -147 109.5 -214.5t246.5 -59.5q66 7 120 46q-60 -68 -164 -89q-60 -8 -103 0q-106 21 -177.5 100.5t-83.5 216.5zM108 315v417h48v-375h103q-12 -12 -25 -42h-126zM263 626v44h357v-44h-357zM311 394q68 77 178 68q75 -8 120.5 -54.5t57.5 -119.5 q6 -75 -17.5 -117.5t-75.5 -77.5q27 33 36.5 62.5t7.5 87.5q-6 95 -103.5 149t-203.5 2z" />
<glyph unicode="6" horiz-adv-x="911" d="M100 576q30 127 111 187q-41 -62 -60 -137q-29 -143 4 -388q15 -118 78 -186.5t180 -95.5q122 -19 230 52q-60 -73 -175 -101q-54 -8 -101 0q-228 48 -265 278q-31 242 -2 391zM305 703q19 27 43 43q33 25 81 31q73 10 130 -26t81 -92q10 -21 11 -43h48q10 -27 12 -48 h-110q-4 17 -12 39q-27 73 -110 105t-174 -9zM311 390q56 87 182 78q79 -10 123.5 -58.5t51.5 -127.5q5 -123 -88 -183q43 66 37 135t-56.5 124t-116.5 61q-87 6 -133 -29z" />
<glyph unicode="7" horiz-adv-x="819" d="M106 622v106h50v-58h466q-48 -66 -76 -112t-55 -119.5t-27 -144.5v-340h52v-47h-106v338q0 85 47 188.5t113 188.5h-464z" />
<glyph unicode="8" horiz-adv-x="651" d="M102 83q-12 116 80 199l40 37l-35 35q-25 27 -39.5 43t-28 42.5t-17.5 57.5q-7 138 103 206q-56 -71 -49 -162q8 -79 80 -141l42 -37l-40 -40q-44 -43 -65.5 -84.5t-16.5 -109.5q23 -149 176 -179q29 -4 58 0q8 2 66 19q-70 -73 -174 -62q-155 25 -180 176zM282 624 q27 39 68 46q46 6 79 -23t34 -68.5t-24 -74.5q-31 -37 -80 -77l25 29q21 25 23.5 60t-11 62t-44.5 41.5t-70 4.5zM313 240q8 10 23.5 24t24.5 24q10 -8 24.5 -17.5t22 -15.5t16.5 -14.5t17 -18.5q33 -35 18 -91.5t-61 -66.5q10 21 11 41.5t-3 35t-17.5 31.5t-23 25t-28 23.5 t-24.5 19.5z" />
<glyph unicode="9" horiz-adv-x="871" d="M102 468q6 58 41 113.5t85 88.5q-62 -85 -72 -154q-19 -139 68 -247q104 -128 292 -111q68 10 158 74q10 -193 -96 -247q44 52 42 200q-91 -64 -156 -73q-191 -15 -294 108q-79 97 -68 248zM114 70h66q44 -187 247 -223q114 -11 205 41q-73 -79 -164 -85 q-305 -15 -354 267zM313 601q48 58 122 69q99 6 159.5 -43t73.5 -130q8 -141 -98 -205q50 62 44 156q-6 64 -53 114t-112 61t-136 -22z" />
<glyph unicode=":" horiz-adv-x="419" d="M116 178q11 31 44 35q-4 -21 13.5 -39.5t48.5 -15.5q0 -35 -31 -45.5t-58 8t-17 57.5zM116 383q9 30 44 34q-6 -23 11.5 -41.5t46.5 -16.5q2 -25 -17 -37.5t-41.5 -9.5t-37 22.5t-6.5 48.5z" />
<glyph unicode=";" horiz-adv-x="419" d="M102 -46q59 17 74 46q14 -2 29 2q-31 -52 -103 -48zM120 384q14 41 62 35q-4 -48 40 -60q-2 -33 -32 -42.5t-55 11t-15 56.5zM120.5 41q-8.5 29 10 54t51.5 17q-2 -27 9.5 -42.5t30.5 -17.5q-6 -44 -60 -42q-33 2 -41.5 31z" />
<glyph unicode="&#x3c;" horiz-adv-x="796" d="M102 315l62 42l300 -199h60l73 -50l-184 2zM340 367l240 155h21l-251 -163z" />
<glyph unicode="=" horiz-adv-x="714" d="M102 213v104h49v-54h365v-50h-414zM104 522h51v-54h363v-51h-412z" />
<glyph unicode="&#x3e;" horiz-adv-x="796" d="M99 522h123l240 -157l-64 -42zM106 110l70 48h166l249 161l8 -6v-2l-305 -201h-188z" />
<glyph unicode="?" horiz-adv-x="952" d="M102 829q-2 73 21.5 123.5t67.5 94.5q-52 -81 -46 -170h66q-4 -21 -2 -48h-107zM288 993q60 97 199 87q62 -6 113 -58t55 -110q6 -116 -66 -186q0 1 -4 -1q33 68 26.5 133.5t-53 115.5t-112.5 58q-99 8 -158 -39zM365 77q6 29 37 37q-2 -25 16 -42.5t51 -13.5 q0 -33 -30.5 -44.5t-56.5 8t-17 55.5zM365 319v305h43v-257h61v-48h-104zM512 535v37q75 10 139 64q-52 -73 -139 -101z" />
<glyph unicode="@" horiz-adv-x="1172" d="M102 442q14 108 60.5 178t131.5 126q-58 -60 -89 -115t-45 -140q-14 -141 22 -236t112 -168q110 -110 259 -133q182 -21 318 67q-75 -68 -161 -99.5t-212 -14.5q-184 31 -297.5 169t-98.5 366zM384 680q68 70 186 89q43 6 98 0q141 -12 232 -127t74 -265 q-4 -21 -21.5 -39.5t-44.5 -20.5q14 17 14 50q0 147 -99 251q-114 120 -307 107q-70 -8 -132 -45zM410 394q12 81 85 114q-21 -33 -27 -66q-8 -52 12 -95.5t57 -63.5t83.5 -23t88.5 26q89 -97 207 -77q-48 -66 -99 -95q31 31 43 48q-128 -19 -205 78q-62 -31 -120 -23.5 t-96.5 59t-28.5 118.5zM572 419q4 25 21.5 37t44.5 6q23 -8 30.5 -33t-8 -46.5t-46.5 -17.5q-4 39 -42 54z" />
<glyph unicode="A" horiz-adv-x="1020" d="M100 8l308 1031h42l-297 -985l71 -2l-11 -44h-53h-60zM379 421l7 25l6 22h251l122 -414l48 -2l12 -44h-114l-122 413h-210zM483 767l33 116l93 -311l-37 2l-31 -2z" />
<glyph unicode="B" horiz-adv-x="969" d="M102 10v1024h27h27v-972l221 -6q63 -1 111 -1q121 0 152 7q46 5 100 38q-64 -75 -151 -88q-17 -6 -166 -6q-118 0 -321 4zM259 522v27v21h160q162 0 188 -2q56 -6 106 -53t62 -115q3 -20 2 -39q0 -106 -91 -164q27 33 35 83q3 23 3 44q0 68 -33 120q-44 68 -136 76 q-12 2 -296 2zM259 931v27v22l122 1h49q78 0 99 -5q73 -16 105 -72q21 -36 22 -75q0 -21 -6 -41q-17 -60 -67 -92q27 43 27 89q0 31 -12 63q-32 79 -121 83h-218z" />
<glyph unicode="C" horiz-adv-x="1114" d="M102 348q-18 85 -18 170.5t18 171.5q31 162 163 264q15 12 19 12l-6 -5t-11 -8q-29 -27 -61 -88t-44 -125q-16 -92 -16 -177t16 -163q39 -168 155 -262q103 -83 268 -83q21 0 43 1q79 8 162 56q-116 -100 -218 -104q-20 -1 -39 -1q-173 0 -273 81q-111 90 -158 260z M361 889q17 25 74 56q39 21 102 33q18 2 35.5 2t34.5 -2q186 -27 259 -203h32l20 -49h-54h-58q-73 178 -257 203q-19 2 -36 2q-89 0 -152 -42zM746 209q48 54 60 110h19h19q-31 -60 -98 -110z" />
<glyph unicode="D" horiz-adv-x="958" d="M102 10v1024h26h28v-976l350 -2q107 6 182 68q-106 -116 -228 -116h-4q-4 -1 -44 -1h-49q-87 1 -175 2t-86 1zM259 929v24v25h228q104 -4 186 -77.5t86 -187.5q5 -81 5 -152.5t-5 -133.5q-9 -128 -119 -205q41 38 56 114q12 60 12 123q0 17 -1 33q-3 53 -3 111q0 29 1 58 q0 106 -63.5 181.5t-170.5 81.5z" />
<glyph unicode="E" d="M102 10v1016v8h24h29v-972l566 -4v-48h-619zM255 643v25l359 2v-48h-357zM255 956v20l462 2v-49h-460z" />
<glyph unicode="F" horiz-adv-x="913" d="M102 10v1016v8h22h27v-972h54v-52h-103zM253 620v25v27h361v-50zM253 929v29v22h464v-51h-464z" />
<glyph unicode="G" horiz-adv-x="1112" d="M102 348q-12 76 -12 161t12 181q31 162 155 255q-77 -83 -102 -207q-11 -108 -11 -193.5t11 -148.5q27 -168 147 -262q106 -83 277 -83q20 0 41 1q97 8 180 68q-87 -102 -228 -112q-19 -1 -38 -1q-176 0 -285 87q-120 95 -147 254zM336 875zM336 875zM344 877 q66 79 185 97q15 2 32 2t36 -2q186 -25 259 -201h46q10 -21 14 -45h-110q-39 99 -96 146.5t-161 54.5q-12 1 -24 1q-114 0 -181 -53zM609 419v105h52v-56l210 -2q1 -153 -119 -246q67 79 67 182v17h-210z" />
<glyph unicode="H" horiz-adv-x="911" d="M102 10v1016v8h54v-972h49v-52h-103zM259 622v50h409v-610h49v-52h-103v612h-355zM614 777v257h54v-257h-54z" />
<glyph unicode="I" horiz-adv-x="929" d="M102 8v104h53v-54h575v-50h-628zM102 925v109h53v-54h262v-818h-50v763h-265zM524 929v51h206v-51h-206z" />
<glyph unicode="J" horiz-adv-x="865" d="M99 319h57q10 -114 67 -177t187 -86q29 -4 56 -4q95 0 166 47q-82 -95 -217 -95q-27 0 -56 4q-116 19 -187.5 98t-72.5 213zM578 195q21 31 29 60q6 39 7 238v541h54v-381q1 -55 1 -118q0 -46 -1 -97q-1 -117 -13 -156q-10 -27 -25 -45.5t-52 -41.5z" />
<glyph unicode="K" d="M102 10v1016v8h58l-2 -982h47v-42h-103zM263 535v33l33 39l359 -551l37 -2l29 -44h-124zM265 725v11l67 68l78 77l150 149l10 9h10l-16 -17l-21 -19l-39 -41l-81 -79z" />
<glyph unicode="L" horiz-adv-x="911" d="M102 10v1016v8h58v-970h557v-54h-615z" />
<glyph unicode="M" horiz-adv-x="1016" d="M102 10l2 1028l58 -2v-976l43 2v-52h-103zM265 786v122l197 -236h96l-17 -23l-23 -27h-114zM508 782l66 78l135 168l8 8h17l-98 -122l-62 -75l-58 -66zM717 10v827l58 75l2 -852l42 2v-52h-102z" />
<glyph unicode="N" horiz-adv-x="911" d="M102 10v1016v8h58v-970h45v-54h-103zM263 692v162l405 -790h49v-54h-99zM614 408v618v8h58v-735z" />
<glyph unicode="O" horiz-adv-x="1068" d="M102 348q-18 79 -18 164.5t18 177.5q31 162 155 255q-75 -83 -101 -205q-16 -91 -16.5 -176t16.5 -164q39 -168 155 -262q103 -83 268 -83q21 0 43 1q97 15 180 68q-104 -114 -230 -116q-20 -1 -39 -1q-173 0 -273 81q-111 90 -158 260zM344 881q89 97 237 97h20 q48 -6 84 -20.5t53 -27t46 -39.5q71 -71 89 -172q11 -101 11 -181q0 -195 -67 -268q-22 -23 -63 -48q15 17 46 76q30 64 30 191q0 77 -11 178q-46 238 -266 262q-15 1 -30 1q-103 0 -179 -49z" />
<glyph unicode="P" horiz-adv-x="871" d="M102 10v1016v8h58l-2 -972h47v-52h-103zM261 983q123 0 209 1h9q79 0 127 -19q50 -20 62 -70q2 -33 -5 -55q-23 -46 -60 -54q12 25 11 54q-2 50 -41.5 70.5t-116.5 20.5h-193zM263 622v50q120 -4 205 -4h52q97 2 147 29q4 4 5 6q-2 -6 -4 -11q-29 -43 -94 -62 q-29 -10 -94 -10t-217 2z" />
<glyph unicode="Q" horiz-adv-x="1074" d="M102 348q-16 82 -16 167.5t16 174.5q28 153 157 261q-85 -118 -103 -213q-12 -91 -12 -176.5t12 -165.5q31 -160 149 -255q111 -92 263 -92q26 0 54 3q85 14 157 54q29 -35 36 -54h22.5h22.5q12 -19 19 -44h-114q-19 37 -39 54q-93 -50 -154 -54q-20 -1 -39 -1 q-173 0 -273 81q-111 90 -158 260zM354 885q84 90 224 90q11 0 23 -1q95 -8 183 -85q70 -68 89 -174q8 -89 10 -177v-16q0 -79 -17 -148q-20 -76 -60 -104q-8 10 -12 24q21 29 25 73q2 100 4 188v15q0 80 -20 152q-22 78 -69 118q-29 25 -46.5 38t-55 29.5t-83.5 21.5 q-12 1 -24 1q-97 0 -171 -45zM614 421h54v-13q0 -54 14 -112q17 -66 39 -101q-62 -25 -64 -27q-44 90 -44 213q0 20 1 40z" />
<glyph unicode="R" d="M102 8v1014v10h53v-972l50 2v-54h-103zM257 618v54h97l297 -614h46l24 -54h-120l-300 614h-44zM257 929v56q54 -1 102.5 -1t91.5 1h15q76 0 130 -19q59 -21 67 -71q4 -33 -6 -55q-21 -42 -50 -52q7 26 7 47q0 27 -12 45q-22 32 -76 40q-54 7 -124 9q-35 1 -71 1t-74 -1z M471 670h24q44 0 94 5q64 7 87 34q-22 -41 -68 -67q-43 -24 -101 -24h-9z" />
<glyph unicode="S" horiz-adv-x="859" d="M102 319h58q14 -110 79.5 -177t170.5 -84q30 -5 59 -5q89 0 163 47q-82 -93 -221 -93q-25 0 -52 3q-253 52 -257 309zM145 804q12 108 106 177q0 2 2 4t4 2q-59 -91 -59 -177q0 -8 1 -16q14 -108 80.5 -163t203.5 -65q79 0 138 -62q48 -51 49 -133q0 -18 -3 -37 q-12 -54 -32.5 -84t-56.5 -53q32 45 38 101q1 12 2 25q0 42 -16 78q-20 47 -72.5 80t-127.5 35q-27 2 -58 8q-81 14 -143 89q-57 68 -57 171q0 10 1 20zM332 914q52 64 131 64h14q129 -21 132 -157h52q2 -46 2 -48h-108v9q0 82 -66 122q-39 24 -84 24q-35 0 -73 -14z" />
<glyph unicode="T" horiz-adv-x="923" d="M97 929v105h59v-54h265v-920l47 2v-52h-107v919h-264zM526 929v51h199v-51h-199z" />
<glyph unicode="U" horiz-adv-x="865" d="M102 1034h54l2 -364q2 -361 8 -386q23 -99 80 -149t164 -73q31 -5 59 -5q97 0 171 53q-85 -102 -238 -102q-21 0 -43 2q-81 12 -148 65q-31 29 -47.5 47.5t-33 50.5t-20.5 67q-8 70 -8 794zM578 201q23 27 29 56q5 28 5 302v98l2 369v8h54v-309q0 -309 -1 -395 q-6 -23 -12 -42q-27 -62 -77 -87z" />
<glyph unicode="V" horiz-adv-x="848" d="M100 1036h64l124 -491l116 -489h73l-8 -48h-113l-122 514l-132 510zM444 357l170 681l37 -2l-187 -750z" />
<glyph unicode="W" horiz-adv-x="1062" d="M102 1036h60l194 -984h65l-6 -44h-108zM388 439l70 392h46l-96 -491zM537 425l27 153l103 -526h63l-7 -44h-109zM703 439l116 589l4 8h39l-137 -696z" />
<glyph unicode="X" horiz-adv-x="964" d="M100 10l273 512l-273 514h80l253 -464l-273 -514h85l-27 -48h-118zM450 379l39 75l214 -396h37l27 -48h-124zM477 717l168 319h35l-185 -350z" />
<glyph unicode="Y" horiz-adv-x="807" d="M100 1034h80l230 -364v-614h54v-48h-105v610zM450 810l60 96l72 120l5 8h25l-148 -246z" />
<glyph unicode="Z" horiz-adv-x="1120" d="M97 929v97v8h58v-54h629v-2h-2l-624 -914v-2h-2h769l-1 -56l-824 2l623 921h-626z" />
<glyph unicode="[" horiz-adv-x="656" d="M102 -197v1428v7h53v-1385h357v-50h-410zM257 1134v50h255v-50h-255z" />
<glyph unicode="\" horiz-adv-x="1132" d="M102 1238h78l691 -1381h39l25 -52h-116z" />
<glyph unicode="]" horiz-adv-x="662" d="M50 -93h52v-56h362v-48h-412zM52 1134v97v7h50v-56h308v-1226h-51v1176z" />
<glyph unicode="^" horiz-adv-x="714" d="M100 -93l207 207h12l-159 -158h134l-43 -49h-151zM315 -43l50 55l62 -56h35l54 -49h-143z" />
<glyph unicode="_" horiz-adv-x="1329" d="M102 2v8h53v-54h975v-51h-1028v97z" />
<glyph unicode="`" horiz-adv-x="709" d="M102 1237h112l190 -155h46l60 -48h-156z" />
<glyph unicode="a" d="M102 269q-3 25 -3 49q0 134 100 223q-29 -44 -45 -106q-9 -38 -9 -72q0 -22 4 -44q29 -135 129 -209q75 -55 178 -54q35 0 73 6q31 4 72.5 27t61.5 37v-26.5v-29.5v-12h58v-48h-103v67q-19 -14 -57.5 -36t-73.5 -29q-31 -3 -60 -3q-123 0 -203 59q-100 73 -122 201z M294 485q39 62 127 83q16 2 32.5 2t35.5 -2q79 -4 127 -74q42 -62 43 -135q0 -10 -1 -21q-7 -85 -69 -127q-2 0 -2 -1t-2 -1q31 53 31 104v13q-4 58 -32 104q-28 47 -84 72q-43 20 -93 20q-14 0 -28 -2q-44 -10 -85 -35zM632 622q4 4 17 4l14 -2v-25q-29 21 -31 23z" />
<glyph unicode="b" horiz-adv-x="859" d="M102 8v1018v8h53v-972h50v-54h-103zM236 60l21 2v67l31 -19q14 -10 33 -17q50 -25 87 -29q23 -2 45 -2q122 0 198 62q-88 -116 -245 -116q-23 0 -47 2q-31 6 -77 27t-46 23zM296 487q56 88 160 88q19 0 39 -3q83 -15 129 -73q40 -50 40 -133q0 -13 -1 -26 q-8 -50 -25.5 -77t-52.5 -50q26 52 26 105q1 14 -1 28q-8 66 -55 116t-109 58q-13 1 -25 1q-77 0 -125 -34zM651 124z" />
<glyph unicode="c" horiz-adv-x="900" d="M99 319l3 44q28 131 128 201q-56 -71 -74 -152q-4 -32 -4 -59t4 -48q46 -209 254 -255q22 -5 47 -5q31 0 67 7q66 12 102 37q-44 -47 -116 -73q-46 -16 -95 -17q-27 0 -56 5q-207 43 -257 253zM311 491q60 68 158 68q13 0 26 -1q44 -6 84.5 -33.5t60.5 -68.5h25h21 q19 -43 19 -44h-114q-29 64 -115 91q-35 11 -69 11q-49 0 -96 -23zM570 184l15 29h22q-15 -19 -37 -29z" />
<glyph unicode="d" horiz-adv-x="911" d="M102 261q-2 24 -2 46q0 157 105 244q-52 -71 -52 -187q0 -22 2 -47q13 -119 107 -191q82 -64 213 -63q18 0 37 1q25 2 56 14.5t53 27t46 25.5v-69h50v-54h-103v69q-21 -15 -65.5 -39t-84.5 -28q-23 -2 -45 -2q-127 0 -207 60q-94 70 -110 193zM296 485q6 12 15 25 q6 6 12 14q14 10 13 9q37 27 87 39q21 5 42 6q34 0 70 -14q58 -22 83 -60q44 -56 44 -134q0 -14 -2 -30q-10 -98 -75 -127q28 46 28 96q-1 8 -1 16q-6 58 -32 105t-82 72q-43 20 -94 20q-14 0 -29 -2q-50 -8 -79 -35zM616 1034h51v-422q-33 25 -49 33z" />
<glyph unicode="e" horiz-adv-x="911" d="M102 263q-5 25 -5 51t5 53q23 124 114 193q2 2 4 2q-54 -79 -65 -145q-5 -33 -5 -59.5t5 -46.5q44 -209 253 -255q32 -6 61 -5q86 0 159 48q-81 -93 -210 -93q-28 0 -59 4q-207 43 -257 253zM263 315q-3 14 -3 24.5t3 19.5h454v-44h-454zM305 493q29 49 101 65q27 6 54 7 q44 0 88 -17q68 -26 86 -80h-81q-37 38 -117 48q-18 2 -34 3q-57 0 -97 -26zM574 195q10 15 11 21h18q-12 -15 -29 -21z" />
<glyph unicode="f" horiz-adv-x="859" d="M102 516v108h54v-56h155v-506l48 -2v-50h-102v506h-155zM256 800q1 56 8.5 95.5t27 64.5t56.5 39q-35 -37 -39 -121q-2 -34 -2 -73q0 -60 4 -133h-27h-27q-1 49 -1 90v38zM413 520v48h99v-48h-99zM429 925q15 41 59 49q10 1 20 1q34 0 64 -21q40 -27 42 -77h26h23 q4 -25 4 -48h-103q0 54 -36 81q-26 19 -63 19q-17 0 -36 -4z" />
<glyph unicode="g" horiz-adv-x="865" d="M95 -89l33 2l32 -2q15 -126 77 -186.5t171 -81.5q19 -3 40 -3q34 0 76 8q67 12 108 37q-58 -68 -168 -91q-29 -5 -56 -5t-52 5q-255 52 -261 317zM102 261q-3 25 -3 48q0 149 117 249h1l3 2q-33 -46 -52 -118q-14 -53 -14 -99q0 -16 2 -32q14 -93 82.5 -162.5 t171.5 -92.5q25 -3 49 -3q118 0 209 71v-102.5t-3.5 -85t-12.5 -67.5t-27 -51.5t-47 -35.5q31 41 36 118q3 37 3 78q0 46 -3 97q-92 -70 -206 -70q-24 0 -49 3q-83 15 -147.5 66.5t-89.5 112.5l-12 31zM307 489l20 25q8 8 29 21q29 19 73 29l37 4l32 -4q85 -23 134 -82 q38 -47 38 -114q0 -18 -3 -38q-18 -92 -89 -135q35 60 35 118q0 11 -1 21q-7 68 -54.5 122t-111.5 60q-9 1 -20 1q-22 0 -53 -5q-46 -8 -66 -23zM634 624h34v-25q-19 19 -34 25z" />
<glyph unicode="h" d="M102 8v1014v8l49 2v-968h56l2 -56h-107zM288 481q64 92 180 92q12 0 25 -1q56 -6 104 -50.5t60 -94.5q11 -27 11 -363h53v-56l-101 -2l-2 174t-9 191q-10 52 -54.5 95.5t-108.5 53.5q-14 1 -26 1q-76 0 -132 -40z" />
<glyph unicode="i" horiz-adv-x="407" d="M102 10v606v8h53v-560h54v-54h-107zM106 800q11 29 45 29h4v-6q4 -46 54 -46q0 -19 -11 -33t-24 -18q-12 -4 -22 -4q-23 0 -37 20q-13 17 -13 36q0 11 4 22z" />
<glyph unicode="j" horiz-adv-x="407" d="M-406 -99h27h27q10 -114 83.5 -183.5t169.5 -86.5q19 -3 41 -3q34 0 76 8q69 12 108 37q-58 -68 -169 -90q-30 -5 -57 -5t-51 5q-106 23 -178.5 105t-76.5 213zM71 -230q23 35 29 60q10 56 13 174q1 51 1 120q0 91 -2 216q-4 218 -4 272h25h29v-386l-2 -172 q0 -174 -15 -201q-6 -14 -14 -25q-31 -41 -60 -58zM106 781q12 34 46 34h8q-4 -23 10 -38.5t41 -15.5q0 -35 -31 -45q-11 -4 -22 -4q-19 0 -36 12q-19 13 -19 36q0 10 3 21z" />
<glyph unicode="k" horiz-adv-x="765" d="M102 8v1014v10h47l-2 -970h62v-54h-107zM253 168v41v52v6l209 -205h44l54 -54h-143zM303 365v10l253 251h10z" />
<glyph unicode="l" horiz-adv-x="401" d="M102 10v1016v8h54v-974l53 2v-27v-25h-107z" />
<glyph unicode="m" horiz-adv-x="1016" d="M102 10v606v8h54v-562h53v-25v-27h-107zM272 516q29 54 84 56q50 0 78 -25t30 -56v-172v-187.5t0 -75.5h52v-23v-29h-106v433q2 27 -16 52q-14 17 -46 27q-22 6 -41 6t-35 -6zM580 514q21 43 71 56q10 2 20 2q20 0 40 -8q37 -14 50 -38q12 -17 10 -35v-171v-186.5 t0 -75.5h52v-21v-29h-106v214q0 216 -6 240q-10 35 -54 52q-22 7 -41 7t-36 -7z" />
<glyph unicode="n" d="M102 10v606v8h54v-562h53l-2 -27v-25h-105zM311 491q25 58 126 75q19 3 37 2q72 0 127 -44q43 -35 57 -79t14 -117v-266h51v-25v-27h-105v320q-10 170 -174 190h-19q-75 0 -114 -29z" />
<glyph unicode="o" horiz-adv-x="871" d="M102 365q24 134 132 205q-25 -29 -35 -41.5t-22.5 -43.5t-16.5 -68q-1 -15 -1 -29q1 -70 25 -130q30 -72 74.5 -112t85 -63t71.5 -27q28 -5 53.5 -5t47.5 5q48 6 116 43q-90 -95 -218 -95q-26 0 -53 4q-128 22 -203 122q-60 79 -60 182q0 26 4 53zM313 497q23 29 69 52 q40 20 92 19h19q68 -6 118 -52.5t61 -115.5q4 -22 4 -42q0 -50 -24 -88q-34 -54 -78 -81q23 31 29 54q9 36 9 70t-10 66q-20 63 -62.5 96t-102.5 43q-15 2 -30 2q-46 0 -94 -23z" />
<glyph unicode="p" horiz-adv-x="861" d="M102 -402v1018v8h31h23v-976h49v-50h-103zM259 41v44v39q14 -14 42 -29q46 -27 109 -37q25 -3 49 -3q105 0 181 51q-86 -101 -230 -101q-25 0 -51 3q-43 6 -100 33zM305 491q37 58 122 77q15 3 33 3t38 -3q81 -17 130 -79q40 -52 40 -127q0 -13 -1 -28q-10 -81 -89 -137 q35 53 35 114q0 63 -29 111q-28 47 -84 76q-41 21 -90 21q-17 0 -35 -3q-37 -6 -70 -25z" />
<glyph unicode="q" horiz-adv-x="915" d="M102 257q-4 30 -4 57q0 154 118 242q-35 -44 -52 -108q-11 -43 -11 -88q0 -24 3 -49q23 -110 84 -169t168 -84q23 -4 47 -4q44 0 91 14q72 23 122 58v-478h49v-50h-103v477q-98 -72 -203 -72q-27 0 -55 5q-95 14 -162.5 78.5t-91.5 170.5zM305 491q56 78 161 78 q14 0 29 -1q68 -8 114 -57t58 -111q2 -15 2 -29q0 -77 -47 -137q-19 -25 -44 -37q35 53 35 108q0 7 -1 14q-5 62 -34 111t-89 73q-39 16 -82 16q-23 0 -48 -5q-25 -6 -54 -23zM638 624h30v-23q-15 15 -30 23z" />
<glyph unicode="r" horiz-adv-x="813" d="M102 8v606v10h27h27v-566h53v-50h-107zM284 502q25 46 87 60q21 5 42 5q39 0 75 -18q56 -27 70 -81h39q14 -23 17 -51h-56h-54q-12 62 -81 90q-32 13 -64 13q-37 0 -75 -18z" />
<glyph unicode="s" horiz-adv-x="680" d="M102 220h29h33q23 -135 157 -150q14 -1 27 -1q83 0 139 43q-43 -81 -143 -102q-12 -1 -24 -1q-84 0 -143 50q-67 57 -75 161zM155 450q-2 12 -2 22t2 19q12 60 58 104q-8 -17 -10 -42q-4 -23 0 -39q6 -44 37 -87q31 -39 85 -50q33 -2 67.5 -10t48.5 -33q17 -24 17 -54 q0 -15 -4 -31q-12 -50 -46 -60q3 14 3 28q0 27 -11 49q-16 34 -44 39q-33 6 -60 10t-54.5 16.5t-48.5 33.5q-31 37 -38 85zM303 514q-2 8 -2 14q1 24 23 38q17 10 34 10q12 0 24 -4q30 -12 26 -45h25h23q12 -23 12 -46h-99q4 21 -13.5 31t-52.5 2z" />
<glyph unicode="t" horiz-adv-x="709" d="M102 520v104h31h27v-54h155v-508h50v-52h-106l2 510h-159zM259 676v153h56l2 -81l-2 -72h-56zM421 520v50h52h43v-50h-95z" />
<glyph unicode="u" horiz-adv-x="911" d="M102 263v353v8h27h27v-309q0 -118 71.5 -179t182.5 -78q25 -4 51 -4q45 0 89 14q70 22 118 58v-27.5v-30.5v-14l49 2v-48h-103v69q-94 -70 -207 -70q-24 0 -48 3q-257 33 -257 253zM578 197q34 52 38 164q2 48 1 103q0 74 -3 160h27h27q2 -118 2 -203t-21 -142t-71 -82z " />
<glyph unicode="v" horiz-adv-x="732" d="M100 624h41h27l182 -568l77 -2l-19 -48h-112zM390 282l105 344h21h19l-125 -400z" />
<glyph unicode="w" horiz-adv-x="952" d="M102 624h35h33l137 -568h66l-12 -48h-110zM342 371l60 255h21h23l-81 -340zM481 311l35 137l96 -392h29h39l-13 -48h-112zM645 363l64 263l19 2l29 -2l-85 -352z" />
<glyph unicode="x" d="M99 624h54h34l205 -259l-236 -309h122l-36 -48h-140l236 307zM421 213l21 27l22 30l170 -214h48l39 -48h-138zM458 462l58 77l60 85h13l-42 -60l-58 -81l-21 -29z" />
<glyph unicode="y" horiz-adv-x="865" d="M102 -73h26h36q10 -128 81.5 -199.5t164.5 -81.5q29 -4 57 -4q99 0 173 53q-52 -56 -116 -86q-43 -20 -102 -20q-29 0 -63 5q-110 19 -182.5 98.5t-74.5 234.5zM102 263v353v8h24h30v-307q2 -213 254 -255q28 -5 56 -5q107 0 202 72q1 -39 1 -74q0 -26 -1 -51 q-1 -56 -7 -98.5t-26.5 -73.5t-56.5 -46q29 35 34 118q4 47 4 98q0 37 -2 75q-35 -25 -61 -39.5t-78 -25.5q-30 -5 -63 -5q-25 0 -53 3q-118 21 -185.5 87.5t-71.5 165.5zM578 201q35 39 38 131l-2 292h27h27v-288v-7q0 -48 -25 -83q-27 -37 -65 -45z" />
<glyph unicode="z" d="M100 8l404 512h-402v104h58v-54h398l-403 -512h301h265v-50h-621z" />
<glyph unicode="{" horiz-adv-x="691" d="M102 60q-6 46 0 98q6 44 42 104.5t43 94.5q10 46 -29 78q-21 17 -56 25v98q41 16 53 24v-68q37 -12 54 -29q33 -37 31 -73q-4 -35 -42 -96t-43 -103q-8 -54 0 -99q19 -126 119.5 -197.5t268.5 -63.5v-50q-191 -21 -302.5 46.5t-138.5 210.5zM102 881q-18 180 111 286 q-70 -99 -58 -234q6 -44 13.5 -63.5t28.5 -48.5q4 -8 13.5 -20.5t15.5 -20t12.5 -19t9.5 -22.5t2 -26.5t-5 -32.5q-17 -43 -54 -54q15 39 0 77q-10 17 -33 51t-37.5 64t-18.5 63zM299 1101q64 98 244 83v-50q-48 -2 -91.5 0t-86 -5.5t-66.5 -27.5z" />
<glyph unicode="|" horiz-adv-x="407" d="M102 -195v1426v7h54l-1 -1385h54v-48h-107z" />
<glyph unicode="}" horiz-adv-x="685" d="M52 -91h50v-52q234 -21 311 50q-83 -122 -361 -102v104zM52 1138v100h50v-54h66t60 -2q114 -8 171 -75.5t34 -177.5q-8 -29 -20 -48q-62 -83 -71 -135q-6 -64 12.5 -104.5t58.5 -85.5q-46 -41 -59 -117q-6 -50 9.5 -93t35.5 -69t32.5 -70.5t1.5 -96.5q-8 -27 -23 -54 q-19 -29 -29 -38.5t-27 -19.5q19 29 27 64q12 52 0 95.5t-32.5 69.5t-36.5 68.5t-11 92.5q14 77 60 120q-25 29 -38.5 48.5t-25 57t-7.5 82.5q10 60 71 135q17 25 20 50q15 108 -32.5 175t-137.5 80q-14 2 -159 2zM413 -93zM469 456q9 17 24 29v-23q-12 -2 -24 -6z" />
<glyph unicode="~" horiz-adv-x="784" d="M97 419h59q12 -164 182 -156q22 1 43 13q-29 -52 -93 -59.5t-120 29t-66 96.5q-6 31 -5 77zM319 367q21 14 35 33q-2 -12 -12 -21.5t-23 -11.5zM429 315q10 31 36 39.5t49 -10.5t25 -58l-2 -23h52v-49h-106q4 48 -6.5 74.5t-47.5 26.5z" />
<glyph unicode="&#xad;" horiz-adv-x="714" d="M102 315v104h49v-54h365v-50h-414z" />
<glyph unicode="&#x2000;" horiz-adv-x="682" />
<glyph unicode="&#x2001;" horiz-adv-x="1365" />
<glyph unicode="&#x2002;" horiz-adv-x="682" />
<glyph unicode="&#x2003;" horiz-adv-x="1365" />
<glyph unicode="&#x2004;" horiz-adv-x="455" />
<glyph unicode="&#x2005;" horiz-adv-x="341" />
<glyph unicode="&#x2006;" horiz-adv-x="227" />
<glyph unicode="&#x2007;" horiz-adv-x="227" />
<glyph unicode="&#x2008;" horiz-adv-x="170" />
<glyph unicode="&#x2009;" horiz-adv-x="273" />
<glyph unicode="&#x200a;" horiz-adv-x="75" />
<glyph unicode="&#x2010;" horiz-adv-x="714" d="M102 315v104h49v-54h365v-50h-414z" />
<glyph unicode="&#x2011;" horiz-adv-x="714" d="M102 315v104h49v-54h365v-50h-414z" />
<glyph unicode="&#x2012;" horiz-adv-x="714" d="M102 315v104h49v-54h365v-50h-414z" />
<glyph unicode="&#x2013;" horiz-adv-x="1324" d="M102 315v104h121v-54h903v-50h-1024z" />
<glyph unicode="&#x2014;" horiz-adv-x="2348" d="M102 315v104h242v-54h1806v-50h-2048z" />
<glyph unicode="&#x202f;" horiz-adv-x="273" />
<glyph unicode="&#x205f;" horiz-adv-x="341" />
<glyph unicode="&#x25fc;" horiz-adv-x="627" d="M0 0v628h628v-628h-628z" />
</font>
</defs>
</svg>
